<?xml version="1.0" standalone="no"?>
<!DOCTYPE svg PUBLIC "-//W3C//DTD SVG 20010904//EN" "http://www.w3.org/TR/2001/REC-SVG-20010904/DTD/svg10.dtd">
<svg version="1.0" xmlns="http://www.w3.org/2000/svg" width="167.000000pt" height="174.000000pt" viewBox="0 0 167.000000 174.000000" preserveAspectRatio="xMidYMid meet">
<g transform="translate(0.000000,174.000000) scale(0.100000,-0.100000)"
fill="#d13a7a" stroke="none">
<path d="M721 1505 c-51 -30 -94 -55 -95 -55 -2 0 -92 -51 -202 -114 l-199
-113 -3 -355 -2 -355 300 -172 c165 -94 306 -171 314 -171 15 0 570 314 599
338 31 27 21 42 -30 42 -38 0 -64 -9 -127 -45 -43 -25 -82 -42 -87 -39 -12 7
-72 126 -99 194 -28 71 -180 556 -180 574 0 36 111 1 143 -44 14 -21 16 -20
53 27 21 26 42 54 47 61 8 9 -58 12 -318 12 -187 0 -325 -4 -323 -9 2 -5 23
-30 46 -56 43 -46 44 -46 59 -26 32 47 143 73 143 34 0 -10 -31 -114 -69 -233
-38 -118 -79 -249 -91 -290 -31 -105 -78 -222 -98 -242 -16 -16 -22 -14 -107
34 -49 29 -93 57 -97 62 -5 6 -7 145 -5 309 l2 299 270 154 c263 151 271 155
295 140 14 -9 134 -78 267 -153 l242 -138 3 -180 c2 -99 2 -226 0 -282 l-3
-103 40 0 41 0 0 304 0 305 -192 109 c-187 106 -227 128 -333 187 -27 15 -54
31 -59 36 -20 18 -55 7 -145 -46z m143 -401 c10 -27 35 -105 56 -174 21 -69
42 -133 45 -142 7 -17 -3 -18 -124 -18 -92 0 -131 3 -131 11 0 17 89 327 102
355 16 34 30 25 52 -32z m138 -459 c10 -33 21 -92 25 -132 l6 -72 61 -3 61 -3
-140 -79 c-77 -43 -149 -85 -160 -92 -18 -11 -38 -3 -185 82 l-165 94 66 0 66
0 7 73 c6 70 27 164 41 186 4 8 53 11 153 9 l146 -3 18 -60z"/>
</g>
</svg>
